<svg width="430" height="77" viewBox="0 0 430 77" fill="none" xmlns="http://www.w3.org/2000/svg">
<path d="M371.5 28.5L322.5 4V73L371.5 49V28.5Z" fill="#FFDE91"/>
<path d="M300 0L229 10V67L300 77V0Z" fill="#FFDE91"/>
<path d="M153 0H130L129.5 77L153 73V0Z" fill="#FFDE91"/>
<path d="M130 0L107.5 4L107 73L129.5 77L130 0Z" fill="#A35200"/>
<path d="M107.5 4L58 28V48.5L107 73L107.5 4Z" fill="#FFDE91"/>
<path d="M175.5 3.5L153 0V73L175.5 70.5V3.5Z" fill="#DF2A39"/>
<path d="M206.5 10L175.5 3.5V70.5L206.5 67V10Z" fill="#FFDE91"/>
<path d="M229 10H206.5V67H229V10Z" fill="#DF2A39"/>
<path d="M322.5 4L300 0V77L322.5 73V4Z" fill="#E0A800"/>
<path d="M58 48.5V28H0V48.5H58Z" fill="#C0C0C0"/>
<path d="M371.5 28.5V49H430V28.5H371.5Z" fill="#C0C0C0"/>
</svg>
